<svg width="1200" height="300" viewBox="0 0 1200 300" xmlns="http://www.w3.org/2000/svg">
  <defs>
    <linearGradient id="bg" x1="0" y1="0" x2="0" y2="1">
      <stop offset="0%" stop-color="#0d1117"/>
      <stop offset="100%" stop-color="#161b22"/>
    </linearGradient>
  </defs>
  <rect width="1200" height="300" fill="url(#bg)"/>
  <!-- Scattered geometric shapes -->
  <g opacity="0.06" fill="none" stroke="#58a6ff" stroke-width="1">
    <rect x="80" y="40" width="40" height="40" rx="4" transform="rotate(15,100,60)"/>
    <circle cx="1100" cy="80" r="25"/>
    <polygon points="200,240 220,200 240,240"/>
    <rect x="950" y="200" width="35" height="35" rx="4" transform="rotate(-10,967,217)"/>
    <circle cx="150" cy="180" r="15"/>
    <polygon points="1050,220 1070,190 1090,220"/>
    <rect x="450" y="30" width="25" height="25" rx="3" transform="rotate(25,462,42)"/>
    <circle cx="780" cy="250" r="18"/>
    <rect x="680" y="20" width="30" height="30" rx="4" transform="rotate(-20,695,35)"/>
    <polygon points="380,260 395,230 410,260"/>
    <circle cx="550" cy="260" r="12"/>
    <rect x="850" y="40" width="28" height="28" rx="3" transform="rotate(30,864,54)"/>
  </g>
  <!-- Accent line -->
  <line x1="440" y1="190" x2="760" y2="190" stroke="#58a6ff" stroke-width="2" opacity="0.4"/>
  <circle cx="440" cy="190" r="3" fill="#58a6ff" opacity="0.5"/>
  <circle cx="760" cy="190" r="3" fill="#58a6ff" opacity="0.5"/>
  <!-- Name -->
  <text x="600" y="120" text-anchor="middle" fill="#e6edf3" font-family="system-ui, -apple-system, 'Segoe UI', sans-serif" font-size="38" font-weight="600" letter-spacing="0.5">Hrithik Dasharatha Angadi</text>
  <!-- Subtitle -->
  <text x="600" y="165" text-anchor="middle" fill="#7d8590" font-family="system-ui, -apple-system, 'Segoe UI', sans-serif" font-size="15" font-weight="400" letter-spacing="4">DATA SCIENTIST  ·  ML ENGINEER  ·  ANALYTICS ENGINEER</text>
</svg>
